<?xml version="1.0" encoding="UTF-8"?>
<svg width="32" height="32" viewBox="0 0 32 32" fill="none" xmlns="http://www.w3.org/2000/svg">
  <defs>
    <linearGradient id="grad1" x1="0%" y1="0%" x2="100%" y2="100%">
      <stop offset="0%" style="stop-color:#E5855E;stop-opacity:1" />
      <stop offset="100%" style="stop-color:#FF6B6B;stop-opacity:1" />
    </linearGradient>
  </defs>
  <rect width="32" height="32" rx="16" fill="#1A1A1A"/>
  <path d="M24 10H8C6.89543 10 6 10.8954 6 12V20C6 21.1046 6.89543 22 8 22H24C25.1046 22 26 21.1046 26 20V12C26 10.8954 25.1046 10 24 10Z" stroke="url(#grad1)" stroke-width="1.5"/>
  <circle cx="12" cy="16" r="2" fill="url(#grad1)"/>
  <circle cx="20" cy="16" r="2" fill="url(#grad1)"/>
  <path d="M11 24C11 24 13 26 16 26C19 26 21 24 21 24" stroke="url(#grad1)" stroke-width="1.5" stroke-linecap="round"/>
  <path d="M9 8L11 10M23 8L21 10" stroke="url(#grad1)" stroke-width="1.5" stroke-linecap="round"/>
</svg> 