<?xml version="1.0" encoding="UTF-8"?>
<svg width="300" height="150" viewBox="0 0 300 150" xmlns="http://www.w3.org/2000/svg">
  <defs>
    <linearGradient id="cyberGrad" x1="0%" y1="0%" x2="100%" y2="100%">
      <stop offset="0%" style="stop-color:#43A047;stop-opacity:1" />
      <stop offset="100%" style="stop-color:#1B5E20;stop-opacity:1" />
    </linearGradient>
    <filter id="matrix">
      <feTurbulence type="fractalNoise" baseFrequency="0.65" numOctaves="1" result="noise"/>
      <feColorMatrix type="matrix" values="0 0 0 0 0, 0 1 0 0 0, 0 0 0 0 0, 0 0 0 0.5 0"/>
    </filter>
  </defs>
  <g transform="translate(20, 35)">
    <!-- Shield Base -->
    <path d="M40 10L70 25L60 65L40 80L20 65L10 25Z" 
          fill="url(#cyberGrad)" stroke="#43A047" stroke-width="2"/>
    
    <!-- Digital Circuit Pattern -->
    <g opacity="0.2" filter="url(#matrix)">
      <rect x="20" y="25" width="40" height="40"/>
    </g>
    
    <!-- Animated Security Lines -->
    <path d="M40 20L40 70M25 35L55 35M25 55L55 55" 
          stroke="#A5D6A7" stroke-width="1.5" fill="none" opacity="0.6">
      <animate attributeName="stroke-dasharray" values="0,150;150,0" dur="2s" repeatCount="indefinite"/>
    </path>
    
    <!-- Central Lock Icon -->
    <circle cx="40" cy="45" r="8" fill="#A5D6A7"/>
    <path d="M37 45v-5a3 3 0 0 1 6 0v5" stroke="#1B5E20" stroke-width="2" fill="none"/>
    <rect x="35" y="42" width="10" height="8" fill="#1B5E20" rx="2"/>
    
    <!-- Pulse Effect -->
    <circle cx="40" cy="45" r="15" stroke="#43A047" fill="none" opacity="0.5">
      <animate attributeName="r" values="15;25;15" dur="2s" repeatCount="indefinite"/>
      <animate attributeName="opacity" values="0.5;0;0.5" dur="2s" repeatCount="indefinite"/>
    </circle>
  </g>
  <text x="120" y="85" font-family="'SF Pro Display', Arial, sans-serif" font-size="32" font-weight="bold" fill="#43A047">
    CYBER
    <tspan x="120" y="115" font-size="24" fill="#1B5E20">FLUX</tspan>
  </text>
</svg> 