<svg width="24" height="24" viewBox="0 0 24 24" fill="none" xmlns="http://www.w3.org/2000/svg">
  <path fill-rule="evenodd" clip-rule="evenodd" d="M13.3 3.3C12.5 2.9 11.5 2.9 10.7 3.3L5.7 5.9C4.9 6.3 4.3 7.1 4.3 8V13.2C4.3 14.1 4.9 14.9 5.7 15.3L10.7 17.9C11.5 18.3 12.5 18.3 13.3 17.9L18.3 15.3C19.1 14.9 19.7 14.1 19.7 13.2V8C19.7 7.1 19.1 6.3 18.3 5.9L13.3 3.3ZM12 15C13.6569 15 15 13.6569 15 12C15 10.3431 13.6569 9 12 9C10.3431 9 9 10.3431 9 12C9 13.6569 10.3431 15 12 15Z" fill="#00A67E"/>
</svg> 