<?xml version="1.0" encoding="UTF-8"?>
<svg width="300" height="150" viewBox="0 0 300 150" xmlns="http://www.w3.org/2000/svg">
  <defs>
    <linearGradient id="tensorGrad" x1="0%" y1="0%" x2="100%" y2="100%">
      <stop offset="0%" style="stop-color:#6366F1;stop-opacity:1" />
      <stop offset="100%" style="stop-color:#4F46E5;stop-opacity:1" />
    </linearGradient>
    <filter id="tensorGlow">
      <feGaussianBlur stdDeviation="2" result="coloredBlur"/>
      <feMerge>
        <feMergeNode in="coloredBlur"/>
        <feMergeNode in="SourceGraphic"/>
      </feMerge>
    </filter>
  </defs>
  <g transform="translate(20, 35)" filter="url(#tensorGlow)">
    <!-- 3D Tensor Cube -->
    <g transform="rotate(-15, 40, 40)">
      <!-- Front face -->
      <path d="M20 30L50 30L50 60L20 60Z" fill="url(#tensorGrad)" opacity="0.9"/>
      
      <!-- Top face -->
      <path d="M20 30L50 30L65 15L35 15Z" fill="url(#tensorGrad)" opacity="0.7"/>
      
      <!-- Side face -->
      <path d="M50 30L65 15L65 45L50 60Z" fill="url(#tensorGrad)" opacity="0.8"/>
      
      <!-- Grid lines -->
      <path d="M20 40L50 40M20 50L50 50" stroke="white" stroke-width="0.5" opacity="0.3"/>
      <path d="M30 30L30 60M40 30L40 60" stroke="white" stroke-width="0.5" opacity="0.3"/>
      
      <!-- Top grid -->
      <path d="M27.5 26L57.5 11M35 26L65 11" stroke="white" stroke-width="0.5" opacity="0.3"/>
      
      <!-- Side grid -->
      <path d="M54 33L69 18M58 37L73 22" stroke="white" stroke-width="0.5" opacity="0.3"/>
      
      <!-- Animated data points -->
      <g>
        <circle cx="25" cy="35" r="1.5" fill="white">
          <animate attributeName="opacity" values="1;0.3;1" dur="2s" repeatCount="indefinite"/>
        </circle>
        <circle cx="35" cy="45" r="1.5" fill="white">
          <animate attributeName="opacity" values="0.3;1;0.3" dur="2s" repeatCount="indefinite"/>
        </circle>
        <circle cx="45" cy="55" r="1.5" fill="white">
          <animate attributeName="opacity" values="1;0.3;1" dur="2s" repeatCount="indefinite"/>
        </circle>
        <circle cx="60" cy="20" r="1.5" fill="white">
          <animate attributeName="opacity" values="0.3;1;0.3" dur="2s" repeatCount="indefinite"/>
        </circle>
      </g>
    </g>
    
    <!-- Floating matrix elements -->
    <g>
      <text x="15" y="25" font-family="monospace" font-size="4" fill="white" opacity="0.6">
        <animate attributeName="opacity" values="0.6;0.2;0.6" dur="3s" repeatCount="indefinite"/>
        1 0 1
      </text>
      <text x="55" y="40" font-family="monospace" font-size="4" fill="white" opacity="0.4">
        <animate attributeName="opacity" values="0.4;0.8;0.4" dur="3s" repeatCount="indefinite"/>
        0 1 0
      </text>
      <text x="25" y="65" font-family="monospace" font-size="4" fill="white" opacity="0.8">
        <animate attributeName="opacity" values="0.8;0.4;0.8" dur="3s" repeatCount="indefinite"/>
        1 1 0
      </text>
    </g>
    
    <!-- Glowing edges -->
    <path d="M20 30L50 30L65 15" fill="none" stroke="white" stroke-width="1" opacity="0.5">
      <animate attributeName="stroke-dasharray" values="0,100;100,0" dur="2s" repeatCount="indefinite"/>
    </path>
    <path d="M50 60L65 45" fill="none" stroke="white" stroke-width="1" opacity="0.5">
      <animate attributeName="stroke-dasharray" values="100,0;0,100" dur="2s" repeatCount="indefinite"/>
    </path>
  </g>
  <text x="120" y="85" font-family="'SF Pro Display', Arial, sans-serif" font-size="32" font-weight="bold" fill="#6366F1" filter="url(#tensorGlow)">
    TENSOR
    <tspan x="120" y="115" font-size="24" fill="#4F46E5">LABS</tspan>
  </text>
</svg> 